<svg xmlns="http://www.w3.org/2000/svg" width="24" height="34" viewBox="0 0 24 34"><path d="M21.4,11.6l-9-9C12.1,2.2,11.6,2,11,2H4C2.9,2,2,2.9,2,4v7c0,0.6,0.2,1.1,0.6,1.4l9,9C12,21.8,12.5,22,13,22s1.1-0.2,1.4-0.6l7-7C21.8,14,22,13.5,22,13C22,12.4,21.8,11.9,21.4,11.6z M5.5,7C4.7,7,4,6.3,4,5.5C4,4.7,4.7,4,5.5,4S7,4.7,7,5.5C7,6.3,6.3,7,5.5,7z M17.3,15.3L13,19.5l-4.3-4.3c-0.4-0.4-0.7-1-0.7-1.7c0-1.4,1.1-2.5,2.5-2.5c0.7,0,1.3,0.3,1.8,0.7l0.7,0.7l0.7-0.7c0.4-0.4,1.1-0.7,1.8-0.7c1.4,0,2.5,1.1,2.5,2.5C18,14.2,17.7,14.8,17.3,15.3z"/></svg>
