<?xml version="1.0" encoding="utf-8"?>
<!-- Generator: Adobe Illustrator 19.2.0, SVG Export Plug-In . SVG Version: 6.00 Build 0)  -->
<svg version="1.1" id="Layer_1" xmlns="http://www.w3.org/2000/svg" xmlns:xlink="http://www.w3.org/1999/xlink" x="0px" y="0px"
	 viewBox="0 0 24 24" style="enable-background:new 0 0 24 24;" xml:space="preserve">
<style type="text/css">
	.st0{fill:#FFFFFF;}
	.st1{display:none;}
	.st2{fill:none;}
</style>
<path d="M12,2C6.5,2,2,6.5,2,12c0,5.5,4.5,10,10,10c5.5,0,10-4.5,10-10C22,6.5,17.5,2,12,2z"/>
<polygon class="st0" points="16.4,12.3 12.8,8.7 12.8,18.6 11.2,18.6 11.2,8.7 7.6,12.3 6.6,11.2 12,5.8 17.4,11.2 "/>
<polygon class="st1" points="6.6,9.6 7.6,10.7 11.2,7.1 11.2,19.8 12.8,19.8 12.8,7.1 16.4,10.7 17.4,9.6 12,4.2 "/>
<path class="st2" d="M12.8,17"/>
</svg>
