<?xml version="1.0" encoding="utf-8"?>
<!-- Generator: Adobe Illustrator 19.2.0, SVG Export Plug-In . SVG Version: 6.00 Build 0)  -->
<svg version="1.1" id="Layer_1" xmlns="http://www.w3.org/2000/svg" xmlns:xlink="http://www.w3.org/1999/xlink" x="0px" y="0px"
	 viewBox="0 0 24 24" style="enable-background:new 0 0 24 24;" xml:space="preserve">
<style type="text/css">
	.st0{display:none;}
	.st1{fill:none;}
</style>
<path d="M16.2,7.8C15.1,6.6,13.5,6,12,6v6l5.2-3C16.9,8.6,16.6,8.1,16.2,7.8z"/>
<path class="st0" d="M12,12v6c1.5,0,3.1-0.6,4.2-1.8c2-2,2.3-4.9,0.9-7.2L12,12z"/>
<path d="M12,2C6.5,2,2,6.5,2,12c0,5.5,4.5,10,10,10s10-4.5,10-10C22,6.5,17.5,2,12,2z M12,20c-4.4,0-8-3.6-8-8c0-4.4,3.6-8,8-8
	s8,3.6,8,8C20,16.4,16.4,20,12,20z"/>
<path class="st0" d="M7.8,16.2C8.9,17.4,10.5,18,12,18v-6V6c-1.5,0-3.1,0.6-4.2,1.8C5.4,10.1,5.4,13.9,7.8,16.2z"/>
<line class="st1" x1="12" y1="12" x2="5.9" y2="8.5"/>
<line class="st1" x1="12" y1="12" x2="5.9" y2="15.5"/>
<line class="st1" x1="12" y1="12" x2="18.1" y2="15.5"/>
</svg>
