<svg id="text" xmlns="http://www.w3.org/2000/svg" viewBox="0 0 423.45215 71.32764"><title>audiocoin_text</title><path fill="#3cb0e5" d="M268.27246,91.81445l26.87988,68.54395h-7.00781L279.792,139.04688H248.5918l-8.25586,21.31152h-6.91211l27.55273-68.54395h7.2959Zm9.31152,41.66406-13.248-35.13623L250.6084,133.47852H277.584Z" transform="translate(-233.42383 -90.37451)"/><path fill="#3cb0e5" d="M334.79883,160.3584v-8.92773h-0.19141a17.17147,17.17147,0,0,1-6.96,7.63184,19.8541,19.8541,0,0,1-10.12793,2.63965,22.02742,22.02742,0,0,1-8.0166-1.2959,13.34954,13.34954,0,0,1-5.376-3.69629,14.94735,14.94735,0,0,1-3.02344-5.85547,29.43565,29.43565,0,0,1-.96-7.87207V110.82227h6.04785v32.25586q0.19043,6.7207,3.12012,10.17676,2.92676,3.45557,10.12793,3.45508a12.76445,12.76445,0,0,0,6.71973-1.67969,14.26019,14.26019,0,0,0,4.6084-4.46387,20.13259,20.13259,0,0,0,2.6875-6.38379,31.35557,31.35557,0,0,0,.86426-7.34375v-26.0166h6.04785V160.3584h-5.56836Z" transform="translate(-233.42383 -90.37451)"/><path fill="#3cb0e5" d="M389.80664,160.3584v-9.4082h-0.19238a14.23286,14.23286,0,0,1-2.832,4.416,18.37907,18.37907,0,0,1-4.27148,3.4082,22.10187,22.10187,0,0,1-5.13672,2.16016,20.01441,20.01441,0,0,1-5.42383.76758,21.97538,21.97538,0,0,1-9.83984-2.06348,19.70792,19.70792,0,0,1-6.96-5.66406,24.27863,24.27863,0,0,1-4.12793-8.35254,38.091,38.091,0,0,1,0-20.06348,24.27193,24.27193,0,0,1,4.12793-8.35205,20.18462,20.18462,0,0,1,6.96-5.71191,21.55122,21.55122,0,0,1,9.83984-2.1123,21.96537,21.96537,0,0,1,5.42383.67188,18.24605,18.24605,0,0,1,4.94434,2.064,17.44259,17.44259,0,0,1,4.08008,3.4082,14.33255,14.33255,0,0,1,2.73535,4.7041h0.19238v-28.416H395.374V160.3584h-5.56738ZM356.6377,143.22266a21.05583,21.05583,0,0,0,2.87988,6.76758,15.84475,15.84475,0,0,0,5.04,4.84863A13.95013,13.95013,0,0,0,371.9502,156.71a16.27744,16.27744,0,0,0,8.1123-1.87109,16.03754,16.03754,0,0,0,5.376-4.84863,19.9358,19.9358,0,0,0,2.97559-6.76758,32.38679,32.38679,0,0,0,0-15.26416,19.95938,19.95938,0,0,0-2.97559-6.76807,16.05157,16.05157,0,0,0-5.376-4.84814,16.26709,16.26709,0,0,0-8.1123-1.87207,13.94147,13.94147,0,0,0-7.39258,1.87207,15.85891,15.85891,0,0,0-5.04,4.84814,21.08174,21.08174,0,0,0-2.87988,6.76807A32.38679,32.38679,0,0,0,356.6377,143.22266Z" transform="translate(-233.42383 -90.37451)"/><path fill="#3cb0e5" d="M413.03809,91.81445v9.6958h-6.04785v-9.6958h6.04785Zm0,19.00781V160.3584h-6.04785V110.82227h6.04785Z" transform="translate(-233.42383 -90.37451)"/><path fill="#3cb0e5" d="M455.61328,111.49463a21.8866,21.8866,0,0,1,7.34473,5.66357,24.556,24.556,0,0,1,4.51172,8.3042,34.15708,34.15708,0,0,1,0,20.25635,24.53983,24.53983,0,0,1-4.51172,8.30371,21.34148,21.34148,0,0,1-7.34473,5.61621,25.41674,25.41674,0,0,1-20.06348,0,21.314,21.314,0,0,1-7.34473-5.61621,24.4894,24.4894,0,0,1-4.51172-8.30371,34.15708,34.15708,0,0,1,0-20.25635,24.50552,24.50552,0,0,1,4.51172-8.3042,21.85766,21.85766,0,0,1,7.34473-5.66357A24.87747,24.87747,0,0,1,455.61328,111.49463Zm-17.61621,4.7998a16.67233,16.67233,0,0,0-5.42383,4.7998,21.79144,21.79144,0,0,0-3.26367,6.76807,27.58838,27.58838,0,0,0,0,15.45605,21.74148,21.74148,0,0,0,3.26367,6.76758,16.63051,16.63051,0,0,0,5.42383,4.80078,16.68688,16.68688,0,0,0,15.16895,0,16.6404,16.6404,0,0,0,5.42383-4.80078,21.76308,21.76308,0,0,0,3.26367-6.76758,27.58838,27.58838,0,0,0,0-15.45605,21.81314,21.81314,0,0,0-3.26367-6.76807,16.68227,16.68227,0,0,0-5.42383-4.7998A16.67892,16.67892,0,0,0,437.99707,116.29443Z" transform="translate(-233.42383 -90.37451)"/><path d="M526.46191,105.49463a19.32663,19.32663,0,0,0-4.80078-5.23242,21.43745,21.43745,0,0,0-6.23926-3.21582,23.09971,23.09971,0,0,0-7.15234-1.104,24.72278,24.72278,0,0,0-11.71191,2.5918,23.19921,23.19921,0,0,0-8.01562,6.86426,29.548,29.548,0,0,0-4.6084,9.64795,41.51224,41.51224,0,0,0,0,22.03174,29.45319,29.45319,0,0,0,4.6084,9.69629,23.18891,23.18891,0,0,0,8.01563,6.86426,24.72278,24.72278,0,0,0,11.71191,2.5918,20.82714,20.82714,0,0,0,8.63965-1.72852,20.45406,20.45406,0,0,0,6.624-4.70312,24.1631,24.1631,0,0,0,4.5127-6.96,29.066,29.066,0,0,0,2.208-8.59277h6.52734a36.97542,36.97542,0,0,1-2.97559,11.42383,28.03773,28.03773,0,0,1-5.95215,8.64063,25.28909,25.28909,0,0,1-8.5918,5.47168,30.15593,30.15593,0,0,1-10.99219,1.91992,32.36251,32.36251,0,0,1-14.16016-2.92773,29.37619,29.37619,0,0,1-10.12793-7.82422,33.25269,33.25269,0,0,1-6.04785-11.32812,46.4578,46.4578,0,0,1,0-27.07178,33.80914,33.80914,0,0,1,6.04785-11.376,29.1539,29.1539,0,0,1,10.12793-7.87207,34.314,34.314,0,0,1,23.71191-1.48779,27.69578,27.69578,0,0,1,8.44824,4.272,24.93238,24.93238,0,0,1,6.33594,6.96,23.43162,23.43162,0,0,1,3.21582,9.50391h-6.52734A21.95151,21.95151,0,0,0,526.46191,105.49463Z" transform="translate(-233.42383 -90.37451)"/><path d="M576.57227,111.49463a21.8866,21.8866,0,0,1,7.34473,5.66357,24.556,24.556,0,0,1,4.51172,8.3042,34.15707,34.15707,0,0,1,0,20.25635,24.53983,24.53983,0,0,1-4.51172,8.30371,21.34148,21.34148,0,0,1-7.34473,5.61621,25.41674,25.41674,0,0,1-20.06348,0,21.314,21.314,0,0,1-7.34473-5.61621,24.4894,24.4894,0,0,1-4.51172-8.30371,34.15707,34.15707,0,0,1,0-20.25635,24.50552,24.50552,0,0,1,4.51172-8.3042,21.85766,21.85766,0,0,1,7.34473-5.66357A24.87747,24.87747,0,0,1,576.57227,111.49463Zm-17.61621,4.7998a16.67232,16.67232,0,0,0-5.42383,4.7998,21.79144,21.79144,0,0,0-3.26367,6.76807,27.58838,27.58838,0,0,0,0,15.45605,21.74148,21.74148,0,0,0,3.26367,6.76758,16.63051,16.63051,0,0,0,5.42383,4.80078,16.68688,16.68688,0,0,0,15.16895,0,16.6404,16.6404,0,0,0,5.42383-4.80078,21.76308,21.76308,0,0,0,3.26367-6.76758,27.58838,27.58838,0,0,0,0-15.45605,21.81314,21.81314,0,0,0-3.26367-6.76807,16.68226,16.68226,0,0,0-5.42383-4.7998A16.67892,16.67892,0,0,0,558.95605,116.29443Z" transform="translate(-233.42383 -90.37451)"/><path d="M605.13281,91.81445v9.6958H599.085v-9.6958h6.04785Zm0,19.00781V160.3584H599.085V110.82227h6.04785Z" transform="translate(-233.42383 -90.37451)"/><path d="M622.7002,110.82227v8.54395h0.19238a14.50426,14.50426,0,0,1,6.14355-7.248,18.05457,18.05457,0,0,1,9.69629-2.73584,24.42535,24.42535,0,0,1,8.6875,1.34424,13.75407,13.75407,0,0,1,5.61621,3.792,14.145,14.145,0,0,1,2.97656,6,33.82578,33.82578,0,0,1,.86328,7.96777V160.3584h-6.04785V129.44629a28.59144,28.59144,0,0,0-.57617-5.90381,12.49122,12.49122,0,0,0-2.01562-4.752,9.78236,9.78236,0,0,0-3.8877-3.168,14.29561,14.29561,0,0,0-6.09668-1.15234,15.401,15.401,0,0,0-6.47949,1.29639,14.01576,14.01576,0,0,0-4.7998,3.55176,16.39122,16.39122,0,0,0-3.07227,5.376,21.88079,21.88079,0,0,0-1.2002,6.76807v28.896h-6.04785V110.82227h6.04785Z" transform="translate(-233.42383 -90.37451)"/></svg>