<?xml version="1.0" encoding="utf-8"?>
<!-- Generator: Adobe Illustrator 19.2.0, SVG Export Plug-In . SVG Version: 6.00 Build 0)  -->
<svg version="1.1" id="Layer_1" xmlns="http://www.w3.org/2000/svg" xmlns:xlink="http://www.w3.org/1999/xlink" x="0px" y="0px"
	 viewBox="0 0 24 34" style="enable-background:new 0 0 24 34;" xml:space="preserve">
<path d="M19.4,23c0-0.3,0.1-0.6,0.1-1c0-0.3,0-0.7-0.1-1l2.1-1.6c0.2-0.1,0.2-0.4,0.1-0.6l-2-3.5C19.5,15,19.3,15,19.1,15l-2.5,1
	c-0.5-0.4-1.1-0.7-1.7-1l-0.4-2.7c0-0.2-0.2-0.4-0.5-0.4h-4c-0.2,0-0.5,0.2-0.5,0.4l-0.4,2.6c-0.6,0.2-1.2,0.6-1.7,1l-2.5-1
	c-0.2-0.1-0.5,0-0.6,0.2l-2,3.5c-0.1,0.2-0.1,0.5,0.1,0.6L4.6,21c0,0.3-0.1,0.6-0.1,1c0,0.3,0,0.7,0.1,1l-2.1,1.6
	c-0.2,0.1-0.2,0.4-0.1,0.6l2,3.5C4.5,28.9,4.7,29,5,28.9l2.5-1c0.5,0.4,1.1,0.7,1.7,1l0.4,2.6c0,0.2,0.2,0.4,0.5,0.4h4
	c0.2,0,0.5-0.2,0.5-0.4l0.4-2.6c0.6-0.2,1.2-0.6,1.7-1l2.5,1c0.2,0.1,0.5,0,0.6-0.2l2-3.5c0.1-0.2,0.1-0.5-0.1-0.6L19.4,23z
	 M12,25.5c-1.9,0-3.5-1.6-3.5-3.5s1.6-3.5,3.5-3.5s3.5,1.6,3.5,3.5S13.9,25.5,12,25.5z"/>
</svg>
