<?xml version="1.0" encoding="utf-8"?>
<svg version="1.1" id="Layer_1" xmlns="http://www.w3.org/2000/svg" xmlns:xlink="http://www.w3.org/1999/xlink" x="0px" y="0px"
	 viewBox="0 0 24 34" style="enable-background:new 0 0 24 34;" xml:space="preserve">
<path d="M21.4,21.6l-9-9C12.1,12.2,11.6,12,11,12H4c-1.1,0-2,0.9-2,2v7c0,0.6,0.2,1.1,0.6,1.4l9,9c0.4,0.4,0.9,0.6,1.4,0.6
	s1.1-0.2,1.4-0.6l7-7C21.8,24,22,23.5,22,23C22,22.4,21.8,21.9,21.4,21.6z M5.5,17C4.7,17,4,16.3,4,15.5C4,14.7,4.7,14,5.5,14
	S7,14.7,7,15.5C7,16.3,6.3,17,5.5,17z M17.3,25.3L13,29.5l-4.3-4.3C8.3,24.8,8,24.2,8,23.5c0-1.4,1.1-2.5,2.5-2.5
	c0.7,0,1.3,0.3,1.8,0.7l0.7,0.7l0.7-0.7c0.4-0.4,1.1-0.7,1.8-0.7c1.4,0,2.5,1.1,2.5,2.5C18,24.2,17.7,24.8,17.3,25.3z"/>
</svg>
