<?xml version="1.0" encoding="utf-8"?>
<svg version="1.1" id="Layer_1" xmlns="http://www.w3.org/2000/svg" xmlns:xlink="http://www.w3.org/1999/xlink" x="0px" y="0px"
	 viewBox="0 0 24 24" style="enable-background:new 0 0 24 24;" xml:space="preserve">
<path d="M15,6.8l-1.5,2.6L19,7.9l-1.5-5.5L16,5.1C12.2,2.9,7.3,4.2,5.1,8C4.3,9.4,4,10.9,4,12.3l2-0.5C6,10.8,6.3,9.9,6.8,9
	C8.5,6.1,12.1,5.1,15,6.8z M20,11.7l-2,0.5c0,0.9-0.3,1.9-0.8,2.8c-1.7,2.9-5.3,3.9-8.2,2.2l1.5-2.6L5,16.1l1.5,5.5L8,18.9
	c3.8,2.2,8.7,0.9,10.9-2.9C19.7,14.6,20,13.1,20,11.7z"/>
</svg>
